<?xml version="1.0" encoding="utf-8"?>
<!-- Generator: Adobe Illustrator 26.3.1, SVG Export Plug-In . SVG Version: 6.00 Build 0)  -->
<svg version="1.1" id="Layer_1" xmlns="http://www.w3.org/2000/svg" xmlns:xlink="http://www.w3.org/1999/xlink" x="0px" y="0px"
	 viewBox="0 0 24 24" style="enable-background:new 0 0 24 24;" xml:space="preserve">
<style type="text/css">
	.st0{fill:#FFFFFF;}
</style>
<path class="st0" d="M21.6,6.9c-0.1-0.1-0.3-0.2-0.5-0.3c-0.2-0.1-0.4-0.1-0.5-0.1s-0.4,0-0.5,0.1c-0.2,0.1-0.3,0.2-0.5,0.3
	l-7.3,7.3l-0.1,0.1h-0.1H12c0,0-0.1,0-0.1-0.1L4.4,6.9C4.3,6.7,4.2,6.6,4,6.5c-0.2,0-0.4-0.1-0.6-0.1S3,6.4,2.9,6.5
	C2.7,6.6,2.5,6.7,2.4,6.9C2.1,7.1,2,7.5,2,7.9s0.1,0.7,0.4,1l8.1,8.1c0.4,0.4,0.9,0.6,1.5,0.6s1.1-0.2,1.5-0.6l8.1-8.1
	c0.3-0.3,0.4-0.6,0.4-1S21.9,7.1,21.6,6.9z"/>
</svg>
