<svg width="24" height="24" viewBox="0 0 24 24" fill="none" xmlns="http://www.w3.org/2000/svg">
<path d="M6.85519 2.41657C6.72129 2.54938 6.61501 2.70738 6.54248 2.88146C6.46996 3.05555 6.43262 3.24227 6.43262 3.43086C6.43262 3.61945 6.46996 3.80617 6.54248 3.98025C6.61501 4.15434 6.72129 4.31234 6.85519 4.44514L14.1552 11.7451C14.1898 11.7785 14.2172 11.8184 14.236 11.8626C14.2548 11.9068 14.2645 11.9543 14.2645 12.0023C14.2645 12.0503 14.2548 12.0978 14.236 12.142C14.2172 12.1862 14.1898 12.2261 14.1552 12.2594L6.85519 19.5594C6.72129 19.6922 6.61501 19.8502 6.54248 20.0243C6.46996 20.1984 6.43262 20.3851 6.43262 20.5737C6.43262 20.7623 6.46996 20.949 6.54248 21.1231C6.61501 21.2972 6.72129 21.4552 6.85519 21.588C7.12285 21.8541 7.48492 22.0034 7.86233 22.0034C8.23974 22.0034 8.60181 21.8541 8.86947 21.588L16.9409 13.5166C17.3422 13.1148 17.5676 12.5701 17.5676 12.0023C17.5676 11.4344 17.3422 10.8898 16.9409 10.488L8.86947 2.41657C8.60181 2.1505 8.23974 2.00115 7.86233 2.00115C7.48492 2.00115 7.12285 2.1505 6.85519 2.41657Z" fill="#1B1A16"/>
</svg>
