<svg width="24" height="24" viewBox="0 0 24 24" fill="none" xmlns="http://www.w3.org/2000/svg">
<path d="M13.9171 12.1499C13.8972 12.1312 13.8813 12.1086 13.8704 12.0835C13.8596 12.0584 13.854 12.0314 13.854 12.0041C13.854 11.9767 13.8596 11.9497 13.8704 11.9246C13.8813 11.8995 13.8972 11.8769 13.9171 11.8582L21.6338 4.13322C21.7507 4.01773 21.8435 3.88018 21.9068 3.72855C21.9702 3.57692 22.0028 3.41422 22.0028 3.24989C22.0028 3.08556 21.9702 2.92286 21.9068 2.77122C21.8435 2.61959 21.7507 2.48205 21.6338 2.36656C21.3983 2.13449 21.081 2.00439 20.7504 2.00439C20.4198 2.00439 20.1025 2.13449 19.8671 2.36656L12.1504 10.0832C12.131 10.1034 12.1077 10.1194 12.0819 10.1304C12.0562 10.1413 12.0284 10.147 12.0004 10.147C11.9724 10.147 11.9447 10.1413 11.9189 10.1304C11.8932 10.1194 11.8699 10.1034 11.8504 10.0832L4.13376 2.36656C3.89832 2.13449 3.58102 2.00439 3.25043 2.00439C2.91985 2.00439 2.60254 2.13449 2.3671 2.36656C2.25019 2.48205 2.15737 2.61959 2.09402 2.77122C2.03067 2.92286 1.99805 3.08556 1.99805 3.24989C1.99805 3.41422 2.03067 3.57692 2.09402 3.72855C2.15737 3.88018 2.25019 4.01773 2.3671 4.13322L10.0838 11.8582C10.1037 11.8769 10.1196 11.8995 10.1304 11.9246C10.1413 11.9497 10.1469 11.9767 10.1469 12.0041C10.1469 12.0314 10.1413 12.0584 10.1304 12.0835C10.1196 12.1086 10.1037 12.1312 10.0838 12.1499L2.3671 19.8666C2.25019 19.982 2.15737 20.1196 2.09402 20.2712C2.03067 20.4229 1.99805 20.5856 1.99805 20.7499C1.99805 20.9142 2.03067 21.0769 2.09402 21.2286C2.15737 21.3802 2.25019 21.5177 2.3671 21.6332C2.60254 21.8653 2.91985 21.9954 3.25043 21.9954C3.58102 21.9954 3.89832 21.8653 4.13376 21.6332L11.8504 13.9166C11.8699 13.8964 11.8932 13.8804 11.9189 13.8694C11.9447 13.8584 11.9724 13.8528 12.0004 13.8528C12.0284 13.8528 12.0562 13.8584 12.0819 13.8694C12.1077 13.8804 12.131 13.8964 12.1504 13.9166L19.8671 21.6332C20.1025 21.8653 20.4198 21.9954 20.7504 21.9954C21.081 21.9954 21.3983 21.8653 21.6338 21.6332C21.7507 21.5177 21.8435 21.3802 21.9068 21.2286C21.9702 21.0769 22.0028 20.9142 22.0028 20.7499C22.0028 20.5856 21.9702 20.4229 21.9068 20.2712C21.8435 20.1196 21.7507 19.982 21.6338 19.8666L13.9171 12.1499Z" fill="#1B1A16"/>
</svg>
