<svg width="24" height="24" viewBox="0 0 24 24" fill="none" xmlns="http://www.w3.org/2000/svg">
<path fill-rule="evenodd" clip-rule="evenodd" d="M3.875 3.375C3.74239 3.375 3.61521 3.42768 3.52145 3.52145C3.42768 3.61521 3.375 3.74239 3.375 3.875V16.375C3.375 16.5076 3.42768 16.6348 3.52145 16.7286C3.61522 16.8223 3.74239 16.875 3.875 16.875H6.375C6.78921 16.875 7.125 17.2108 7.125 17.625V19.875L10.925 17.025C11.0548 16.9276 11.2127 16.875 11.375 16.875H20.125C20.2576 16.875 20.3848 16.8223 20.4786 16.7286C20.5723 16.6348 20.625 16.5076 20.625 16.375V3.875C20.625 3.74239 20.5723 3.61522 20.4786 3.52145C20.3848 3.42768 20.2576 3.375 20.125 3.375H3.875ZM2.46079 2.46079C2.83586 2.08571 3.34457 1.875 3.875 1.875H20.125C20.6554 1.875 21.1641 2.08571 21.5392 2.46079C21.9143 2.83586 22.125 3.34457 22.125 3.875V16.375C22.125 16.9054 21.9143 17.4141 21.5392 17.7892C21.1641 18.1643 20.6554 18.375 20.125 18.375H11.625L6.825 21.975C6.59774 22.1454 6.29368 22.1729 6.03959 22.0458C5.7855 21.9188 5.625 21.6591 5.625 21.375V18.375H3.875C3.34457 18.375 2.83586 18.1643 2.46079 17.7892C2.08571 17.4141 1.875 16.9054 1.875 16.375V3.875C1.875 3.34457 2.08571 2.83586 2.46079 2.46079ZM5.625 8.25C5.625 7.83579 5.96079 7.5 6.375 7.5H17.625C18.0392 7.5 18.375 7.83579 18.375 8.25C18.375 8.66421 18.0392 9 17.625 9H6.375C5.96079 9 5.625 8.66421 5.625 8.25ZM5.625 12C5.625 11.5858 5.96079 11.25 6.375 11.25H15.125C15.5392 11.25 15.875 11.5858 15.875 12C15.875 12.4142 15.5392 12.75 15.125 12.75H6.375C5.96079 12.75 5.625 12.4142 5.625 12Z" fill="#1B1A16"/>
</svg>
